<svg width="24" height="26" viewBox="0 0 24 26" fill="none" xmlns="http://www.w3.org/2000/svg">
<path d="M23.3716 17.169L20.9692 14.8161V9.01846C21.0011 6.86556 20.2322 4.7741 18.8045 3.13025C17.3767 1.48641 15.3864 0.401198 13.2012 0.0750016C11.933 -0.0876613 10.6438 0.0149646 9.4195 0.376032C8.19524 0.737099 7.06411 1.3483 6.1016 2.16886C5.13909 2.98943 4.36732 4.00047 3.8378 5.13455C3.30827 6.26862 3.03316 7.49965 3.03083 8.74548V14.8161L0.62837 17.169C0.326603 17.4678 0.121964 17.8466 0.0400356 18.258C-0.0418925 18.6695 0.00252527 19.0954 0.167736 19.4824C0.332947 19.8694 0.61162 20.2004 0.96892 20.434C1.32622 20.6676 1.74629 20.7934 2.17662 20.7957H6.66121V21.2377C6.72355 22.5574 7.32048 23.7992 8.32121 24.691C9.32193 25.5828 10.6448 26.0519 12 25.9954C13.3552 26.0519 14.6781 25.5828 15.6788 24.691C16.6795 23.7992 17.2764 22.5574 17.3388 21.2377V20.7957H21.8234C22.2537 20.7934 22.6738 20.6676 23.0311 20.434C23.3884 20.2004 23.6671 19.8694 23.8323 19.4824C23.9975 19.0954 24.0419 18.6695 23.96 18.258C23.878 17.8466 23.6734 17.4678 23.3716 17.169ZM14.6694 21.2377C14.5954 21.863 14.2765 22.4363 13.7792 22.8383C13.282 23.2403 12.6446 23.4399 12 23.3956C11.3554 23.4399 10.718 23.2403 10.2208 22.8383C9.72348 22.4363 9.40462 21.863 9.3306 21.2377V20.7957H14.6694V21.2377ZM3.33781 18.1959L4.91275 16.662C5.16257 16.4201 5.36076 16.1325 5.49591 15.8157C5.63106 15.4989 5.7005 15.1592 5.70022 14.8161V8.74548C5.70095 7.86855 5.89427 7.00192 6.2672 6.20375C6.64012 5.40558 7.18404 4.69434 7.86243 4.11776C8.53168 3.52718 9.3247 3.08529 10.1866 2.82269C11.0485 2.56008 11.9587 2.48302 12.8542 2.59685C14.3978 2.84094 15.7988 3.6199 16.7994 4.79031C17.8 5.96072 18.3329 7.44378 18.2998 8.96646V14.8161C18.2977 15.1583 18.3651 15.4974 18.4979 15.8142C18.6308 16.131 18.8265 16.4191 19.0739 16.662L20.6622 18.1959H3.33781Z" fill="#181725"/>
</svg>
