<svg width="19" height="21" viewBox="0 0 19 21" fill="none" xmlns="http://www.w3.org/2000/svg">
<path d="M18.5025 13.8672L16.6006 11.9669V7.28414C16.6259 5.54526 16.0172 3.856 14.8869 2.52828C13.7565 1.20056 12.1809 0.324044 10.451 0.0605782C9.44697 -0.0708034 8.42631 0.0120868 7.45711 0.303718C6.4879 0.595349 5.59242 1.08901 4.83043 1.75178C4.06845 2.41454 3.45746 3.23115 3.03826 4.14714C2.61905 5.06312 2.40125 6.05741 2.39941 7.06365V11.9669L0.49746 13.8672C0.258561 14.1086 0.0965546 14.4145 0.0316949 14.7469C-0.0331649 15.0792 0.00199917 15.4232 0.132791 15.7358C0.263583 16.0483 0.4842 16.3157 0.767061 16.5044C1.04992 16.693 1.38248 16.7947 1.72316 16.7966H5.27346V17.1535C5.32281 18.2194 5.79538 19.2224 6.58762 19.9427C7.37986 20.663 8.42715 21.0419 9.5 20.9963C10.5729 21.0419 11.6201 20.663 12.4124 19.9427C13.2046 19.2224 13.6772 18.2194 13.7265 17.1535V16.7966H17.2768C17.6175 16.7947 17.9501 16.693 18.2329 16.5044C18.5158 16.3157 18.7364 16.0483 18.8672 15.7358C18.998 15.4232 19.0332 15.0792 18.9683 14.7469C18.9034 14.4145 18.7414 14.1086 18.5025 13.8672ZM11.6133 17.1535C11.5547 17.6586 11.3022 18.1216 10.9086 18.4463C10.5149 18.771 10.0103 18.9322 9.5 18.8964C8.98966 18.9322 8.4851 18.771 8.09143 18.4463C7.69775 18.1216 7.44533 17.6586 7.38673 17.1535V16.7966H11.6133V17.1535ZM2.64243 14.6967L3.88926 13.4578C4.08703 13.2624 4.24393 13.0301 4.35093 12.7742C4.45793 12.5183 4.5129 12.2439 4.51268 11.9669V7.06365C4.51325 6.35537 4.66629 5.6554 4.96153 5.01072C5.25677 4.36605 5.68736 3.79158 6.22443 3.32588C6.75424 2.84888 7.38205 2.49197 8.06439 2.27986C8.74673 2.06776 9.46731 2.00552 10.1762 2.09746C11.3982 2.29461 12.5074 2.92377 13.2996 3.8691C14.0917 4.81443 14.5135 6.01229 14.4873 7.24214V11.9669C14.4857 12.2432 14.539 12.5172 14.6442 12.773C14.7494 13.0289 14.9043 13.2616 15.1002 13.4578L16.3576 14.6967H2.64243Z" fill="black"/>
</svg>
