<svg width="16" height="16" viewBox="0 0 16 16" fill="none" xmlns="http://www.w3.org/2000/svg">
<path d="M15.0582 13.1967L15.0573 13.1958L10.6018 8.96406L10.6016 8.96383L9.59586 8.02113L15.0573 2.84689C15.1718 2.73835 15.2653 2.61728 15.3242 2.48334C15.3821 2.35176 15.4173 2.20807 15.4173 2.0632C15.4173 1.91146 15.3945 1.76633 15.3235 1.6309C15.2662 1.50118 15.1853 1.36927 15.0795 1.26898L15.0795 1.26893L15.0775 1.26723C14.9641 1.17048 14.8371 1.08257 14.6968 1.02718C14.556 0.971582 14.3938 0.95 14.2451 0.95C14.0934 0.95 13.943 0.983173 13.7947 1.03724L13.7947 1.03722L13.7934 1.03771C13.6531 1.09309 13.5256 1.18119 13.4218 1.27951L7.13304 7.23763C7.02768 7.33746 6.94625 7.45896 6.88833 7.59066L6.88831 7.59065L6.88777 7.59198C6.83053 7.73299 6.79521 7.87633 6.79521 8.02133C6.79521 8.1662 6.83046 8.30989 6.88833 8.44147C6.94625 8.57317 7.02768 8.69467 7.13304 8.7945L13.4218 14.7526L13.4218 14.7526L13.4228 14.7535C13.6442 14.9522 13.9343 15.0505 14.234 15.0505C14.536 15.0505 14.826 14.9297 15.035 14.7316C15.2553 14.5229 15.3726 14.2577 15.3729 13.9699C15.3843 13.6814 15.2669 13.4054 15.0582 13.1967Z" fill="#B3B3B3" stroke="#B3B3B3" stroke-width="0.1"/>
<path d="M1.30899 2.80391L1.30991 2.80481L5.76539 7.03655L5.76563 7.03678L6.77134 7.97948L1.30996 13.1537C1.19539 13.2623 1.10193 13.3833 1.04303 13.5173C0.985158 13.6488 0.949909 13.7925 0.949909 13.9374C0.949909 14.0892 0.97269 14.2343 1.04374 14.3697C1.10098 14.4994 1.18188 14.6313 1.28774 14.7316L1.28769 14.7317L1.28968 14.7334C1.40315 14.8301 1.53012 14.918 1.67043 14.9734C1.81126 15.029 1.97346 15.0506 2.12211 15.0506C2.27385 15.0506 2.42419 15.0174 2.57255 14.9634L2.57256 14.9634L2.5738 14.9629C2.71409 14.9075 2.8416 14.8194 2.94537 14.7211L9.23415 8.76298C9.33951 8.66315 9.42094 8.54165 9.47886 8.40995L9.47887 8.40996L9.47941 8.40863C9.53666 8.26762 9.57197 8.12428 9.57197 7.97928C9.57197 7.83441 9.53672 7.69072 9.47886 7.55914C9.42094 7.42744 9.33951 7.30594 9.23415 7.20612L2.94537 1.24799L2.94539 1.24797L2.94438 1.24707C2.72302 1.04838 2.43289 0.950061 2.13322 0.950061C1.83126 0.950061 1.54126 1.07096 1.33218 1.26904C1.11193 1.47771 0.99463 1.74288 0.994354 2.03066C0.982942 2.3192 1.10029 2.59519 1.30899 2.80391Z" fill="#B3B3B3" stroke="#B3B3B3" stroke-width="0.1"/>
</svg>
