<svg width="44" height="32" viewBox="0 0 44 32" fill="none" xmlns="http://www.w3.org/2000/svg">
<path d="M31.75 16C34.74 16 37.145 13.5733 37.145 10.5833C37.145 7.59333 34.74 5.16666 31.75 5.16666C28.76 5.16666 26.3333 7.59333 26.3333 10.5833C26.3333 13.5733 28.76 16 31.75 16ZM15.5 13.8333C19.0966 13.8333 21.9783 10.93 21.9783 7.33333C21.9783 3.73666 19.0966 0.833328 15.5 0.833328C11.9033 0.833328 8.99998 3.73666 8.99998 7.33333C8.99998 10.93 11.9033 13.8333 15.5 13.8333ZM31.75 20.3333C27.785 20.3333 19.8333 22.3267 19.8333 26.2917V31.1667H43.6666V26.2917C43.6666 22.3267 35.715 20.3333 31.75 20.3333ZM15.5 18.1667C10.4516 18.1667 0.333313 20.7017 0.333313 25.75V31.1667H15.5V26.2917C15.5 24.45 16.215 21.2217 20.635 18.7733C18.75 18.3833 16.93 18.1667 15.5 18.1667Z" fill="#4F4F4F"/>
</svg>
