<svg width="10" height="10" viewBox="0 0 10 10" fill="none" xmlns="http://www.w3.org/2000/svg">
<path d="M6.53368 2.70251L1.65382 7.58077L1.33472 8.6689L2.40108 8.3607L7.29714 3.46625L6.53368 2.70251ZM7.36625 1.87021L8.12971 2.63342L8.84133 1.92203C8.89194 1.87142 8.92038 1.80279 8.92038 1.73123C8.92038 1.65967 8.89194 1.59104 8.84133 1.54043L8.45907 1.15882C8.40844 1.10823 8.33979 1.07981 8.2682 1.07981C8.19662 1.07981 8.12796 1.10823 8.07734 1.15882L7.36679 1.87021H7.36625ZM9.22306 0.395618L9.60479 0.777221C9.85784 1.03027 10 1.37342 10 1.73123C10 2.08903 9.85784 2.43219 9.60479 2.68524L2.968 9.32038L0.68951 9.97887C0.596636 10.0056 0.498277 10.007 0.4047 9.9828C0.311124 9.9586 0.225762 9.90973 0.157525 9.8413C0.0892889 9.77286 0.0406804 9.68737 0.0167745 9.59375C-0.00713145 9.50012 -0.00545822 9.4018 0.0216195 9.30904L0.695449 7.01241L7.31496 0.395078C7.56809 0.14211 7.91136 0 8.26928 0C8.6272 0 8.97047 0.14211 9.2236 0.395078L9.22306 0.395618Z" fill="#7B7B7B"/>
</svg>
