<svg width="40" height="40" viewBox="0 0 40 40" fill="none" xmlns="http://www.w3.org/2000/svg">
<path d="M11.75 31.3333C9.59583 31.3333 7.85292 33.0958 7.85292 35.25C7.85292 37.4042 9.59583 39.1667 11.75 39.1667C13.9042 39.1667 15.6667 37.4042 15.6667 35.25C15.6667 33.0958 13.9042 31.3333 11.75 31.3333ZM0 0V3.91667H3.91667L10.9667 18.7804L8.32292 23.5783C8.00958 24.1267 7.83333 24.7729 7.83333 25.4583C7.83333 27.6125 9.59583 29.375 11.75 29.375H35.25V25.4583H12.5725C12.2983 25.4583 12.0829 25.2429 12.0829 24.9688L12.1417 24.7338L13.9042 21.5417H28.4938C29.9625 21.5417 31.255 20.7388 31.9208 19.5246L38.9317 6.815C39.0883 6.54083 39.1667 6.20792 39.1667 5.875C39.1667 4.79792 38.2854 3.91667 37.2083 3.91667H8.24458L6.40375 0H0ZM31.3333 31.3333C29.1792 31.3333 27.4363 33.0958 27.4363 35.25C27.4363 37.4042 29.1792 39.1667 31.3333 39.1667C33.4875 39.1667 35.25 37.4042 35.25 35.25C35.25 33.0958 33.4875 31.3333 31.3333 31.3333Z" fill="#323232"/>
</svg>
