<svg width="18" height="22" viewBox="0 0 18 22" fill="none" xmlns="http://www.w3.org/2000/svg">
<path d="M8.36134 0H9.62398L10.0571 0.082201C12.9715 0.560462 15.2178 3.16848 15.2838 6.16508C15.3059 7.07677 15.2912 7.98845 15.2985 8.89266V9.15421H16.0693C17.2439 9.15421 17.9927 9.91644 17.9927 11.1121V17.0829C17.9927 18.1141 18 19.1454 17.9927 20.1766C17.9853 21.2079 17.1998 22 16.2088 22H1.77651C1.36049 21.9977 0.958475 21.8468 0.640535 21.5737C0.322595 21.3006 0.1089 20.9225 0.0367047 20.5054C0.0136139 20.3873 0.00132644 20.2672 0 20.1467V11.0374C0 10.1406 0.550571 9.39334 1.3801 9.22147C1.71778 9.14674 2.07749 9.16916 2.42985 9.15421H2.70147C2.70147 8.18275 2.69413 7.24864 2.70147 6.30707C2.72106 4.93676 3.17145 3.60889 3.98659 2.5182C4.80173 1.42752 5.93872 0.631399 7.23083 0.246604C7.59788 0.141984 7.97961 0.0822011 8.36134 0ZM12.5824 9.14674C12.5824 8.12296 12.5897 7.1216 12.5824 6.12024C12.5789 5.95627 12.5568 5.79327 12.5163 5.63451C12.1052 3.78872 10.4462 2.56318 8.61827 2.75747C6.79037 2.95177 5.41028 4.51359 5.40294 6.41916C5.39559 7.26359 5.40294 8.10802 5.40294 8.95245C5.40294 9.01223 5.41028 9.07201 5.41028 9.14674H12.5824Z" fill="#A4A4A4"/>
</svg>
