<svg width="53" height="53" viewBox="0 0 53 53" fill="none" xmlns="http://www.w3.org/2000/svg">
<g clip-path="url(#clip0_1156_1049)">
<path d="M39.0531 8.67463L36.4823 8.32794L40.6568 23.9073L42.1402 12.6737C42.376 10.7244 40.9898 8.93234 39.0531 8.67463ZM7.12029 24.0729L21.2114 42.4317C22.0929 43.5824 23.5651 44.0385 24.9028 43.7171C25.3514 43.5969 25.7987 43.403 26.1964 43.0931L37.5018 34.4238C38.6525 33.5423 39.1133 32.0874 38.7918 30.7497C38.6843 30.2792 38.4732 29.8365 38.1632 29.4388L24.0721 11.08C23.1859 9.91207 21.6966 9.46053 20.3462 9.80387C19.8976 9.92406 19.4722 10.1305 19.0871 10.4186L7.7989 19.0832C6.23327 20.2794 5.92875 22.5245 7.12029 24.0729ZM34.8617 29.9536C35.8106 29.6993 36.795 30.2677 37.0493 31.2166C37.3035 32.1655 36.7352 33.1499 35.7863 33.4042C34.8374 33.6584 33.853 33.0901 33.5987 32.1412C33.3444 31.1923 33.9128 30.2079 34.8617 29.9536ZM33.2271 10.0508C32.7186 8.15295 30.7497 7.01625 28.8519 7.52477L26.3502 8.19509L36.158 20.9891L33.2271 10.0508Z" fill="#4F4F4F"/>
</g>
<defs>
<clipPath id="clip0_1156_1049">
<rect width="42.8677" height="42.8677" fill="white" transform="translate(52.5021 41.4071) rotate(165)"/>
</clipPath>
</defs>
</svg>
