<svg width="9" height="14" viewBox="0 0 9 14" fill="none" xmlns="http://www.w3.org/2000/svg">
<path d="M0.339406 1.69863C0.142275 1.50653 0.032757 1.25375 0.043709 0.99087C0.043709 0.727987 0.153226 0.485324 0.36131 0.293217C0.558442 0.111221 0.832236 3.18196e-07 1.11698 3.42107e-07C1.40173 3.66018e-07 1.67552 0.090999 1.88361 0.272995L8.0823 5.99577C8.18087 6.08677 8.25753 6.19799 8.31229 6.31932C8.36705 6.44065 8.3999 6.57209 8.3999 6.70353C8.3999 6.83498 8.36705 6.96642 8.31229 7.09786C8.25753 7.21919 8.18087 7.33041 8.0823 7.42141L1.8836 13.1442C1.78504 13.2352 1.66457 13.3161 1.53315 13.3666C1.39077 13.4172 1.2484 13.4475 1.10603 13.4475C0.963656 13.4475 0.810331 13.4273 0.67891 13.3767C0.547489 13.3262 0.427019 13.2453 0.317502 13.1543C0.218936 13.0633 0.142274 12.942 0.0875149 12.8206C0.0218039 12.6993 -9.91021e-05 12.5679 -9.90892e-05 12.4263C-9.90772e-05 12.2949 0.032756 12.1634 0.087515 12.0421C0.142274 11.9208 0.229888 11.8095 0.339405 11.7084L5.76053 6.70353L4.73106 5.76322L0.339406 1.69863Z" fill="#181725"/>
</svg>
